# xmcd
#
# Track frame offsets: 
#        150
#        11377
#        35562
#        55527
#        74795
#        87492
#        106207
#        143992
#        163175
#        199060
#        226527
#        261360
#        283682
#
# Disc length: 4032 seconds
#
# Revision: 0
# Processed by: cddbd v1.5.1PL0 Copyright (c) Steve Scherf et al.
# Submitted via: ExactAudioCopy v0.95a4
#
DISCID=b60fbe0d
DTITLE=Mike Onesko Blues Band - Smokehouse Sessions
DYEAR=2004
DGENRE=Blues
TTITLE0=Black Betty
TTITLE1=Slow and Steady
TTITLE2=Who's Been Talkin'
TTITLE3=Dirty Double DEaler
TTITLE4=Big Fat Mama
TTITLE5='Sloroads
TTITLE6=The Glide
TTITLE7=Rock Me Baby
TTITLE8=Who Knows Jam
TTITLE9=You Don't Love Me
TTITLE10=Little Red Rooster
TTITLE11=Da Blues
TTITLE12=Crossroads
EXTD=
EXTT0=
EXTT1=
EXTT2=
EXTT3=
EXTT4=
EXTT5=
EXTT6=
EXTT7=
EXTT8=
EXTT9=
EXTT10=
EXTT11=
EXTT12=
PLAYORDER=
